HIERARCHY
ROOT Hips
{
	OFFSET 0.000000 0.000000 0.000000 
	CHANNELS 6 Xposition Yposition Zposition Yrotation Zrotation Xrotation 
	JOINT Lumbar
	{
		OFFSET 0.000000 0.000000 0.000000 
		CHANNELS 3 Zrotation Xrotation Yrotation
		JOINT Neck
		{
			OFFSET 0.000000 0.445665 0.000000 
			CHANNELS 3 Zrotation Xrotation Yrotation
			End Site
			{
				OFFSET 0.000000 0.227535 0.000000 
			}
		}
		JOINT RightShoulder
		{
			OFFSET 0.019635 0.377685 0.194865 
			CHANNELS 3 Zrotation Xrotation Yrotation
			JOINT RightElbow
			{
				OFFSET 0.000000 -0.243375 0.000000 
				CHANNELS 2 Zrotation Yrotation
				JOINT RightWrist
				{
					OFFSET 0.000000 -0.264825 0.000000 
					CHANNELS 2 Zrotation Xrotation
					End Site
					{
						OFFSET 0.006600 -0.176220 0.000990 
					}
				}
			}
		}
		JOINT LeftShoulder
		{
			OFFSET 0.019635 0.377685 -0.194865 
			CHANNELS 3 Zrotation Xrotation Yrotation
			JOINT LeftElbow
			{
				OFFSET 0.000000 -0.243375 0.000000 
				CHANNELS 2 Zrotation Yrotation
				JOINT LeftWrist
				{
					OFFSET 0.000000 -0.264825 0.000000 
					CHANNELS 2 Zrotation Xrotation
					End Site
					{
						OFFSET 0.006600 -0.176220 -0.000990 
					}
				}
			}
		}
	}
	JOINT RightHip
	{
		OFFSET 0.052140 -0.069960 0.075570 
		CHANNELS 3 Zrotation Xrotation Yrotation
		JOINT RightKnee
		{
			OFFSET 0.000000 -0.402270 0.000000 
			CHANNELS 1 Zrotation
			JOINT RightAnkle
			{
				OFFSET 0.000000 -0.404085 0.000000 
				CHANNELS 3 Zrotation Xrotation Yrotation
				End Site
				{
					OFFSET 0.204105 -0.089430 0.008415 
				}
			}
		}
	}
	JOINT LeftHip
	{
		OFFSET 0.052140 -0.069960 -0.075570 
		CHANNELS 3 Zrotation Xrotation Yrotation
		JOINT LeftKnee
		{
			OFFSET 0.000000 -0.402270 0.000000 
			CHANNELS 1 Zrotation
			JOINT LeftAnkle
			{
				OFFSET 0.000000 -0.404085 0.000000 
				CHANNELS 3 Zrotation Xrotation Yrotation
				End Site
				{
					OFFSET 0.204105 -0.089430 -0.008415 
				}
			}
		}
	}
}
MOTION
Frames: 25
Frame Time: 0.02
-0.0028 0.00567 -0.00046 27.07728 -16.51707 -3.10597 42.29662 -1.78266 -7.33154 -13.0284 4.32919 -0.35643 -20.18858 -6.60697 2.24047 22.79203 71.62165 2.39324 -2.86285 -18.01467 6.96745 -2.26383 24.96181 -135.6072 24.23821 -5.86198 26.37486 -1.04837 -0.69002 -19.90899 -7.35218 -5.32658 -3.55839 31.5453 3.32536 1.00689 -24.12197 -6.62297 3.46434 2.46352
-0.00247 0.00512 -0.00039 27.0598 -16.52033 -3.10285 42.30383 -1.78458 -7.32842 -13.0321 4.3332 -0.35647 -20.14772 -6.33459 0.95446 22.80217 76.80581 3.73441 -2.06735 -18.0049 6.98164 -2.27579 24.95717 -135.5816 24.23955 -5.86918 26.40237 -1.10364 -1.02343 -19.95239 -7.31875 -5.30646 -3.53959 31.56542 3.36702 1.14264 -24.16068 -6.61881 3.45619 2.45609
-0.00214 0.00457 -0.00033 27.04228 -16.52359 -3.09975 42.31104 -1.78649 -7.3253 -13.03579 4.33724 -0.3565 -20.10698 -6.06336 -0.32597 22.81229 81.96771 5.06986 -1.27526 -17.99524 6.9959 -2.28795 24.9527 -135.55394 24.24052 -5.87592 26.42985 -1.15878 -1.35625 -19.99571 -7.28536 -5.28635 -3.52082 31.58551 3.40858 1.27791 -24.19934 -6.61467 3.44809 2.4487
-0.00181 0.00402 -0.00026 27.02485 -16.52684 -3.09665 42.31824 -1.7884 -7.32218 -13.03948 4.34126 -0.35654 -20.06625 -5.79188 -1.60765 22.82241 87.13443 6.40653 -0.48243 -17.98551 7.01006 -2.29992 24.9481 -135.52801 24.24179 -5.88302 26.45729 -1.21389 -1.68871 -20.03899 -7.25201 -5.26628 -3.50208 31.60557 3.45011 1.41322 -24.23794 -6.61053 3.43997 2.4413
-0.00148 0.00347 -0.00019 27.00749 -16.53007 -3.09351 42.32543 -1.79031 -7.31908 -13.04318 4.34524 -0.35658 -20.02539 -5.51908 -2.89583 22.83254 92.32699 7.74983 0.31437 -17.97565 7.02412 -2.3116 24.94327 -135.50511 24.24361 -5.89077 26.48474 -1.2691 -2.02158 -20.08232 -7.21866 -5.24622 -3.48332 31.62564 3.49174 1.54907 -24.27659 -6.60637 3.4318 2.43386
-0.00115 0.00292 -0.00012 26.98962 -16.53343 -3.09051 42.33268 -1.79221 -7.31592 -13.04686 4.3494 -0.35662 -19.98491 -5.25113 -4.16008 22.84264 97.42491 9.06887 1.09664 -17.96639 7.0388 -2.32474 24.93954 -135.46754 24.24281 -5.8954 26.51227 -1.3241 -2.35424 -20.12564 -7.1852 -5.22599 -3.46453 31.64577 3.53316 1.68311 -24.31526 -6.60226 3.42383 2.42658
-0.00082 0.00236 -6e-05 26.97281 -16.53652 -3.08724 42.33982 -1.79413 -7.31286 -13.05057 4.35319 -0.35665 -19.94373 -4.97389 -5.47018 22.8528 102.70398 10.43435 1.90672 -17.95595 7.05221 -2.33496 24.93362 -135.45906 24.2472 -5.90622 26.53961 -1.37947 -2.68703 -20.16892 -7.15197 -5.20613 -3.44582 31.66577 3.57494 1.82059 -24.35382 -6.59806 3.41547 2.41898
-0.00049 0.00182 1e-05 26.95502 -16.53985 -3.08422 42.34702 -1.79602 -7.30972 -13.05425 4.35732 -0.35669 -19.90317 -4.7049 -6.73966 22.86291 107.82268 11.75872 2.69217 -17.94657 7.06677 -2.34782 24.92971 -135.42461 24.24693 -5.91151 26.56713 -1.43449 -3.01956 -20.21226 -7.11855 -5.18594 -3.42705 31.68589 3.61641 1.95501 -24.39251 -6.59395 3.40746 2.41166
-0.00017 0.00128 7e-05 26.93604 -16.5435 -3.08148 42.35445 -1.79795 -7.30644 -13.05789 4.36189 -0.35673 -19.86346 -4.44719 -7.95313 22.87292 112.71985 13.02631 3.44363 -17.9386 7.08288 -2.36417 24.92833 -135.35463 24.24042 -5.90926 26.5949 -1.48914 -3.35254 -20.25558 -7.08478 -5.16528 -3.40814 31.70617 3.65745 2.08525 -24.43129 -6.58993 3.39993 2.40474
0.00018 0.00068 0.00015 26.92392 -16.54542 -3.07704 42.36103 -1.79989 -7.30386 -13.06176 4.36402 -0.35674 -19.81912 -4.12817 -9.46974 22.88339 118.81499 14.60095 4.37898 -17.92286 7.09051 -2.36124 24.91259 -135.47763 24.26815 -5.94802 26.6213 -1.54612 -3.68525 -20.29877 -7.05268 -5.14712 -3.38985 31.72555 3.70081 2.23822 -24.46934 -6.58534 3.38977 2.3957
0.00047 0.00021 0.0002 26.89732 -16.55089 -3.07625 42.36911 -1.80164 -7.29988 -13.06515 4.37123 -0.35682 -19.78439 -3.93617 -10.3591 22.89296 122.43191 15.54039 4.93388 -17.92329 7.11571 -2.39843 24.92702 -135.20104 24.22477 -5.90183 26.65054 -1.59803 -4.01699 -20.34239 -7.01727 -5.12385 -3.37035 31.74681 3.73934 2.34411 -24.50908 -6.58195 3.38508 2.39105
0.00063 3e-05 0.00015 26.83055 -16.5671 -3.08521 42.38386 -1.8042 -7.29139 -13.06692 4.39301 -0.35709 -19.77751 -4.11631 -9.40457 22.89954 118.75922 14.61164 4.36996 -17.97042 7.19276 -2.55207 25.02673 -133.74837 23.97303 -5.60627 26.68846 -1.63714 -4.35925 -20.38647 -6.97097 -5.08498 -3.3466 31.77389 3.76402 2.31231 -24.55276 -6.58197 3.3963 2.39915
0.00072 -2e-05 6e-05 26.74936 -16.58676 -3.0979 42.3996 -1.80634 -7.2816 -13.06822 4.41978 -0.35743 -19.78006 -4.42021 -7.83997 22.90542 112.67731 13.06533 3.43613 -18.03342 7.28701 -2.74516 25.15665 -131.90517 23.65115 -5.2278 26.72932 -1.67096 -4.69824 -20.43144 -6.92165 -5.04127 -3.32179 31.80305 3.78398 2.23476 -24.59866 -6.58316 3.41284 2.41154
0.00084 -0.00012 -1e-05 26.67499 -16.60408 -3.10903 42.41329 -1.80774 -7.27287 -13.06995 4.44385 -0.35774 -19.77723 -4.65134 -6.63837 22.91175 108.03183 11.88707 2.72268 -18.08754 7.37076 -2.91559 25.27067 -130.29773 23.37154 -4.89864 26.76789 -1.70649 -5.03 -20.47606 -6.87491 -5.00082 -3.29806 31.83043 3.80645 2.18377 -24.6435 -6.58376 3.42637 2.42151
0.00098 -0.00027 -8e-05 26.59927 -16.62437 -3.11954 42.43397 -1.81295 -7.26222 -13.07088 4.46974 -0.35805 -19.77875 -4.95008 -5.08564 22.91695 101.98643 10.35063 1.79504 -18.14841 7.46499 -3.10463 25.3924 -128.4599 23.05282 -4.52271 26.80942 -1.74493 -5.39804 -20.51916 -6.82315 -4.95592 -3.27186 31.86005 3.82725 2.10858 -24.68693 -6.58465 3.44246 2.43346
0.00105 -0.00029 -0.00017 26.52317 -16.63966 -3.13229 42.44003 -1.81025 -7.25519 -13.07323 4.49304 -0.35836 -19.7738 -5.14036 -4.10449 22.92506 98.22706 9.39879 1.21677 -18.19936 7.54258 -3.26608 25.50714 -126.98874 22.79276 -4.22143 26.84686 -1.77606 -5.69039 -20.56726 -6.78105 -4.9191 -3.25051 31.88714 3.85057 2.07264 -24.73586 -6.58517 3.45445 2.44231
0.00098 5e-05 -0.00035 26.44761 -16.63726 -3.14982 42.40767 -1.7848 -7.25915 -13.08059 4.50767 -0.35861 -19.74533 -4.97384 -4.98576 22.93548 101.89327 10.3466 1.77461 -18.21536 7.56019 -3.32544 25.57862 -126.81037 22.76682 -4.17445 26.8611 -1.78891 -5.77044 -20.61582 -6.76681 -4.90583 -3.24292 31.89343 3.88039 2.15878 -24.78309 -6.58457 3.45391 2.44147
0.00085 0.00049 -0.00055 26.37247 -16.63037 -3.16956 42.35998 -1.75155 -7.26662 -13.08912 4.51956 -0.35887 -19.71045 -4.69859 -6.43996 22.95006 107.85318 11.88099 2.68291 -18.22128 7.56222 -3.35829 25.64501 -126.98451 22.79337 -4.20096 26.87367 -1.7948 -5.77622 -20.67246 -6.7622 -4.90072 -3.24017 31.9001 3.91319 2.28535 -24.83947 -6.58351 3.44905 2.43736
0.00074 0.00084 -0.00073 26.2985 -16.62742 -3.18863 42.31811 -1.72261 -7.27208 -13.09656 4.53293 -0.35911 -19.68094 -4.49117 -7.54156 22.96648 112.4117 13.05674 3.37648 -18.23452 7.57787 -3.41443 25.72472 -126.87064 22.75823 -4.17474 26.89379 -1.8031 -5.81738 -20.73323 -6.753 -4.89198 -3.23522 31.91468 3.94568 2.39199 -24.90155 -6.58253 3.44604 2.43477
0.00066 0.00136 -0.00097 26.21852 -16.61618 -3.20649 42.28183 -1.69059 -7.27945 -13.10669 4.54558 -0.35933 -19.6422 -4.21159 -9.00452 22.9667 118.37345 14.59226 4.28683 -18.23767 7.56672 -3.42617 25.75944 -127.26469 22.87512 -4.22448 26.88354 -1.81315 -5.84736 -20.75851 -6.745 -4.88324 -3.23052 31.89311 3.97362 2.50434 -24.91947 -6.58212 3.44358 2.43216
0.00049 0.00156 -0.00109 26.15104 -16.62158 -3.22727 42.22935 -1.66293 -7.28345 -13.11106 4.55889 -0.35968 -19.62003 -4.0533 -9.86723 23.00219 122.02403 15.53496 4.83928 -18.25809 7.60721 -3.52149 25.88572 -126.71222 22.69534 -4.13801 26.9384 -1.81955 -5.88831 -20.86283 -6.73631 -4.87586 -3.22611 31.94952 4.01175 2.61409 -25.0348 -6.5804 3.43903 2.42882
8e-05 0.00088 -0.00092 26.12102 -16.66991 -3.25607 42.1437 -1.65111 -7.27959 -13.10351 4.57555 -0.3598 -19.65402 -4.26949 -8.86358 23.13002 118.44266 14.62241 4.27232 -18.33852 7.79641 -3.87198 26.27027 -123.26615 21.62665 -3.62792 27.15376 -1.80339 -5.92994 -21.15619 -6.72806 -4.87589 -3.22454 32.19882 4.07824 2.7155 -25.38883 -6.57518 3.42846 2.42366
-0.00043 -0.00013 -0.00062 26.10331 -16.73584 -3.28763 42.04081 -1.64366 -7.27202 -13.08962 4.59274 -0.36018 -19.70347 -4.60844 -7.25239 23.29422 112.52535 13.11087 3.34388 -18.43485 8.03762 -4.3041 26.74599 -118.89264 20.26834 -2.98404 27.43829 -1.78609 -5.99236 -21.534 -6.71806 -4.87615 -3.22261 32.53062 4.15493 2.812 -25.84584 -6.56862 3.41605 2.4179
-0.00092 -0.00101 -0.00035 26.07769 -16.79651 -3.31755 41.94069 -1.63287 -7.26436 -13.07553 4.60916 -0.36084 -19.73968 -4.88214 -5.96695 23.44414 107.8752 11.9247 2.612 -18.51721 8.25344 -4.68675 27.17736 -115.07377 19.08055 -2.42134 27.70417 -1.77914 -6.07882 -21.89083 -6.70564 -4.87235 -3.21859 32.83949 4.22614 2.90462 -26.27403 -6.56271 3.40545 2.41286
-0.00132 -0.00178 -0.00016 26.06082 -16.84572 -3.34913 41.86146 -1.62725 -7.26337 -13.07336 4.62788 -0.35981 -19.80083 -5.19222 -4.48978 23.58372 102.42302 10.53095 1.75392 -18.62728 8.47614 -5.1202 27.6218 -110.70822 17.73119 -1.77561 27.91637 -1.73201 -6.02846 -22.17399 -6.70658 -4.88472 -3.22381 33.08747 4.30027 3.0224 -26.62649 -6.55673 3.39103 2.40607
